<?xml version="1.0" encoding="utf-8"?>
<!-- Generator: Adobe Illustrator 16.0.0, SVG Export Plug-In . SVG Version: 6.00 Build 0)  -->
<!DOCTYPE svg PUBLIC "-//W3C//DTD SVG 1.1//EN" "http://www.w3.org/Graphics/SVG/1.1/DTD/svg11.dtd">
<svg version="1.1" id="Layer_1" xmlns="http://www.w3.org/2000/svg" xmlns:xlink="http://www.w3.org/1999/xlink" x="0px" y="0px"
	 width="239.764px" height="275.168px" viewBox="0 0 239.764 275.168" enable-background="new 0 0 239.764 275.168"
	 xml:space="preserve">
<g>
	<defs>
		<circle id="SVGID_1_" cx="120" cy="152.5" r="120"/>
	</defs>
	<clipPath id="SVGID_2_">
		<use xlink:href="#SVGID_1_"  overflow="visible"/>
	</clipPath>
	<g clip-path="url(#SVGID_2_)">
		<defs>
			<rect id="SVGID_3_" x="-12" y="-7.5" width="264" height="280"/>
		</defs>
		<clipPath id="SVGID_4_">
			<use xlink:href="#SVGID_3_"  overflow="visible"/>
		</clipPath>
		<g clip-path="url(#SVGID_4_)" enable-background="new    ">
			<g>
				<defs>
					<rect id="SVGID_5_" x="-5" y="27.5" width="251" height="251"/>
				</defs>
				<clipPath id="SVGID_6_">
					<use xlink:href="#SVGID_5_"  overflow="visible"/>
				</clipPath>
				<g clip-path="url(#SVGID_6_)">
					<defs>
						<rect id="SVGID_7_" y="32.5" width="240" height="240"/>
					</defs>
					<clipPath id="SVGID_8_">
						<use xlink:href="#SVGID_7_"  overflow="visible"/>
					</clipPath>
					<rect x="-5" y="27.5" clip-path="url(#SVGID_8_)" fill="#E6E6E6" width="250" height="250"/>
				</g>
				<g clip-path="url(#SVGID_6_)">
					<defs>
						<rect id="SVGID_9_" y="32.5" width="240" height="240"/>
					</defs>
					<clipPath id="SVGID_10_">
						<use xlink:href="#SVGID_9_"  overflow="visible"/>
					</clipPath>
					<g clip-path="url(#SVGID_10_)">
						<defs>
							<rect id="SVGID_11_" y="32.5" width="240" height="240"/>
						</defs>
						<clipPath id="SVGID_12_">
							<use xlink:href="#SVGID_11_"  overflow="visible"/>
						</clipPath>
						<rect x="-5" y="27.5" clip-path="url(#SVGID_12_)" fill="#65C9FF" width="250" height="250"/>
					</g>
				</g>
			</g>
		</g>
	</g>
</g>
<g>
	<defs>
		<path id="SVGID_13_" d="M0,152.5h-12v-160h264v160h-12c0,66.274-53.726,120-120,120S0,218.774,0,152.5z"/>
	</defs>
	<clipPath id="SVGID_14_">
		<use xlink:href="#SVGID_13_"  overflow="visible"/>
	</clipPath>
	<g clip-path="url(#SVGID_14_)">
		<defs>
			<rect id="SVGID_15_" x="-12" y="-7.5" width="264" height="280"/>
		</defs>
		<clipPath id="SVGID_16_">
			<use xlink:href="#SVGID_15_"  overflow="visible"/>
		</clipPath>
		<g clip-path="url(#SVGID_16_)" enable-background="new    ">
			<g>
				<defs>
					<rect id="SVGID_17_" x="19" y="28.5" width="201" height="244"/>
				</defs>
				<clipPath id="SVGID_18_">
					<use xlink:href="#SVGID_17_"  overflow="visible"/>
				</clipPath>
				<g clip-path="url(#SVGID_18_)">
					<defs>
						<path id="SVGID_19_" d="M144,173.111V191.5h4c39.765,0,72,32.235,72,72v9H20v-9c0-39.765,32.235-72,72-72h4v-18.389
							c-17.237-8.188-29.628-24.925-31.695-44.73C58.48,127.558,54,122.552,54,116.5v-14c0-5.946,4.324-10.882,10-11.834V84.5
							c0-30.928,25.072-56,56-56s56,25.072,56,56v6.166c5.676,0.952,10,5.888,10,11.834v14c0,6.052-4.48,11.058-10.305,11.881
							C173.628,148.187,161.237,164.923,144,173.111z"/>
					</defs>
					<clipPath id="SVGID_20_">
						<use xlink:href="#SVGID_19_"  overflow="visible"/>
					</clipPath>
					<g clip-path="url(#SVGID_20_)">
						<defs>
							<rect id="SVGID_21_" y="2.5" width="240" height="270"/>
						</defs>
						<clipPath id="SVGID_22_">
							<use xlink:href="#SVGID_21_"  overflow="visible"/>
						</clipPath>
						<g clip-path="url(#SVGID_22_)" enable-background="new    ">
							<g>
								<defs>
									<rect id="SVGID_23_" x="-12" y="23.5" width="264" height="254"/>
								</defs>
								<clipPath id="SVGID_24_">
									<use xlink:href="#SVGID_23_"  overflow="visible"/>
								</clipPath>
								<g clip-path="url(#SVGID_24_)">
									<defs>
										<rect id="SVGID_25_" x="19" y="28.5" width="201" height="244"/>
									</defs>
									<clipPath id="SVGID_26_">
										<use xlink:href="#SVGID_25_"  overflow="visible"/>
									</clipPath>
									<rect x="15" y="23.5" clip-path="url(#SVGID_26_)" fill="#D0C6AC" width="210" height="254"/>
								</g>
								<g clip-path="url(#SVGID_24_)">
									<defs>
										<rect id="SVGID_27_" x="-12" y="28.5" width="264" height="244"/>
									</defs>
									<clipPath id="SVGID_28_">
										<use xlink:href="#SVGID_27_"  overflow="visible"/>
									</clipPath>
									<g clip-path="url(#SVGID_28_)">
										<defs>
											<rect id="SVGID_29_" x="19" y="28.5" width="201" height="244"/>
										</defs>
										<clipPath id="SVGID_30_">
											<use xlink:href="#SVGID_29_"  overflow="visible"/>
										</clipPath>
										<rect x="-17" y="23.5" clip-path="url(#SVGID_30_)" fill="#FFDBB4" width="274" height="254"/>
									</g>
								</g>
								<g clip-path="url(#SVGID_24_)">
									<defs>
										<path id="SVGID_31_" d="M176,122.5v8c0,30.928-25.072,56-56,56s-56-25.072-56-56v-8c0,30.928,25.072,56,56,56
											S176,153.428,176,122.5z"/>
									</defs>
									<clipPath id="SVGID_32_">
										<use xlink:href="#SVGID_31_"  overflow="visible"/>
									</clipPath>
									<g clip-path="url(#SVGID_32_)">
										<defs>
											<rect id="SVGID_33_" x="19" y="28.5" width="201" height="244"/>
										</defs>
										<clipPath id="SVGID_34_">
											<use xlink:href="#SVGID_33_"  overflow="visible"/>
										</clipPath>
										<rect x="59" y="117.5" opacity="0.1" clip-path="url(#SVGID_34_)" width="122" height="74"/>
									</g>
								</g>
							</g>
						</g>
					</g>
				</g>
				<g clip-path="url(#SVGID_18_)">
					<defs>
						<path id="SVGID_35_" d="M93.192,191.552c-0.127,0.983-0.192,1.984-0.192,3c0,13.807,12.088,25,27,25s27-11.193,27-25
							c0-1.016-0.065-2.017-0.192-3H148c39.765,0,72,32.235,72,72v8.948H20v-8.948c0-39.765,32.235-72,72-72H93.192z"/>
					</defs>
					<clipPath id="SVGID_36_">
						<use xlink:href="#SVGID_35_"  overflow="visible"/>
					</clipPath>
					<g clip-path="url(#SVGID_36_)">
						<defs>
							<rect id="SVGID_37_" y="162.5" width="240" height="110"/>
						</defs>
						<clipPath id="SVGID_38_">
							<use xlink:href="#SVGID_37_"  overflow="visible"/>
						</clipPath>
						<g clip-path="url(#SVGID_38_)" enable-background="new    ">
							<g>
								<defs>
									<rect id="SVGID_39_" x="-12" y="162.5" width="264" height="115"/>
								</defs>
								<clipPath id="SVGID_40_">
									<use xlink:href="#SVGID_39_"  overflow="visible"/>
								</clipPath>
								<g clip-path="url(#SVGID_40_)">
									<defs>
										<rect id="SVGID_41_" x="19" y="191.5" width="201" height="81"/>
									</defs>
									<clipPath id="SVGID_42_">
										<use xlink:href="#SVGID_41_"  overflow="visible"/>
									</clipPath>
									<rect x="15" y="186.552" clip-path="url(#SVGID_42_)" fill="#E6E6E6" width="210" height="90.948"/>
								</g>
								<g clip-path="url(#SVGID_40_)">
									<defs>
										<rect id="SVGID_43_" x="-12" y="162.5" width="264" height="110"/>
									</defs>
									<clipPath id="SVGID_44_">
										<use xlink:href="#SVGID_43_"  overflow="visible"/>
									</clipPath>
									<g clip-path="url(#SVGID_44_)">
										<defs>
											<rect id="SVGID_45_" x="19" y="191.5" width="201" height="81"/>
										</defs>
										<clipPath id="SVGID_46_">
											<use xlink:href="#SVGID_45_"  overflow="visible"/>
										</clipPath>
										<rect x="-17" y="157.5" clip-path="url(#SVGID_46_)" fill="#E6E6E6" width="274" height="120"/>
									</g>
								</g>
							</g>
						</g>
					</g>
				</g>
				<g clip-path="url(#SVGID_18_)">
					<defs>
						<path id="SVGID_47_" d="M96,184.071v15.306c0,5.823,3.978,10.977,10.078,14.118L106,213.557l1,3.151l-4.579-0.331
							l-6.112,4.814C89.361,216.58,85,209.926,85,202.528C85,195.24,89.232,188.674,96,184.071z M144,184.779
							c6.182,4.556,10,10.826,10,17.749c0,7.205-4.137,13.705-10.771,18.299l-5.649-4.45L133,216.708l1-3.151l-0.078-0.062
							C140.022,210.354,144,205.2,144,199.377V184.779z"/>
					</defs>
					<clipPath id="SVGID_48_">
						<use xlink:href="#SVGID_47_"  overflow="visible"/>
					</clipPath>
					<g clip-path="url(#SVGID_48_)">
						<defs>
							<rect id="SVGID_49_" y="162.5" width="240" height="110"/>
						</defs>
						<clipPath id="SVGID_50_">
							<use xlink:href="#SVGID_49_"  overflow="visible"/>
						</clipPath>
						<rect x="80" y="179.071" clip-path="url(#SVGID_50_)" fill="#F2F2F2" width="79" height="47.12"/>
					</g>
				</g>
				<g clip-path="url(#SVGID_18_)">
					<defs>
						<path id="SVGID_51_" d="M101.117,141.628c1.059,9.492,9.109,16.872,18.883,16.872c9.805,0,17.874-7.426,18.892-16.96
							c0.082-0.768-0.774-2.04-1.849-2.04c-14.895,0-26.305,0-33.956,0C102.007,139.5,101.012,140.679,101.117,141.628z"/>
					</defs>
					<clipPath id="SVGID_52_">
						<use xlink:href="#SVGID_51_"  overflow="visible"/>
					</clipPath>
					<g clip-path="url(#SVGID_52_)">
						<defs>
							<rect id="SVGID_53_" x="66" y="126.5" width="108" height="44"/>
						</defs>
						<clipPath id="SVGID_54_">
							<use xlink:href="#SVGID_53_"  overflow="visible"/>
						</clipPath>
						<g clip-path="url(#SVGID_54_)" enable-background="new    ">
							<g>
								<defs>
									<rect id="SVGID_55_" x="96" y="128.5" width="48" height="44"/>
								</defs>
								<clipPath id="SVGID_56_">
									<use xlink:href="#SVGID_55_"  overflow="visible"/>
								</clipPath>
								<g clip-path="url(#SVGID_56_)">
									<defs>
										<rect id="SVGID_57_" x="101" y="138.5" width="38" height="20"/>
									</defs>
									<clipPath id="SVGID_58_">
										<use xlink:href="#SVGID_57_"  overflow="visible"/>
									</clipPath>
									<rect x="96.109" y="134.5" opacity="0.7" clip-path="url(#SVGID_58_)" width="47.787" height="29"/>
								</g>
								<g clip-path="url(#SVGID_56_)">
									<defs>
										<path id="SVGID_59_" d="M110,128.5h21c2.762,0,5,2.238,5,5v6c0,2.762-2.238,5-5,5h-21c-2.762,0-5-2.238-5-5v-6
											C105,130.738,107.238,128.5,110,128.5z"/>
									</defs>
									<clipPath id="SVGID_60_">
										<use xlink:href="#SVGID_59_"  overflow="visible"/>
									</clipPath>
									<g clip-path="url(#SVGID_60_)">
										<defs>
											<rect id="SVGID_61_" x="101" y="138.5" width="38" height="20"/>
										</defs>
										<clipPath id="SVGID_62_">
											<use xlink:href="#SVGID_61_"  overflow="visible"/>
										</clipPath>
										<rect x="100" y="123.5" clip-path="url(#SVGID_62_)" fill="#FFFFFF" width="41" height="26"/>
									</g>
								</g>
								<g clip-path="url(#SVGID_56_)">
									<defs>
										<circle id="SVGID_63_" cx="115" cy="161.5" r="11"/>
									</defs>
									<clipPath id="SVGID_64_">
										<use xlink:href="#SVGID_63_"  overflow="visible"/>
									</clipPath>
									<g clip-path="url(#SVGID_64_)">
										<defs>
											<rect id="SVGID_65_" x="101" y="138.5" width="38" height="20"/>
										</defs>
										<clipPath id="SVGID_66_">
											<use xlink:href="#SVGID_65_"  overflow="visible"/>
										</clipPath>
										<rect x="99" y="145.5" clip-path="url(#SVGID_66_)" fill="#FF4F6D" width="32" height="32"/>
									</g>
								</g>
								<g clip-path="url(#SVGID_56_)">
									<defs>
										<circle id="SVGID_67_" cx="125" cy="161.5" r="11"/>
									</defs>
									<clipPath id="SVGID_68_">
										<use xlink:href="#SVGID_67_"  overflow="visible"/>
									</clipPath>
									<g clip-path="url(#SVGID_68_)">
										<defs>
											<rect id="SVGID_69_" x="101" y="138.5" width="38" height="20"/>
										</defs>
										<clipPath id="SVGID_70_">
											<use xlink:href="#SVGID_69_"  overflow="visible"/>
										</clipPath>
										<rect x="109" y="145.5" clip-path="url(#SVGID_70_)" fill="#FF4F6D" width="32" height="32"/>
									</g>
								</g>
							</g>
						</g>
					</g>
				</g>
				<g clip-path="url(#SVGID_18_)">
					<defs>
						<path id="SVGID_71_" d="M108,122.5c0,4.418,5.373,8,12,8s12-3.582,12-8"/>
					</defs>
					<clipPath id="SVGID_72_">
						<use xlink:href="#SVGID_71_"  overflow="visible"/>
					</clipPath>
					<g clip-path="url(#SVGID_72_)">
						<defs>
							<rect id="SVGID_73_" x="92" y="114.5" width="56" height="24"/>
						</defs>
						<clipPath id="SVGID_74_">
							<use xlink:href="#SVGID_73_"  overflow="visible"/>
						</clipPath>
						<rect x="103" y="117.5" opacity="0.16" clip-path="url(#SVGID_74_)" width="34" height="18"/>
					</g>
				</g>
				<g clip-path="url(#SVGID_18_)">
					<defs>
						<path id="SVGID_75_" d="M80.16,104.947c1.847-3.799,6.004-6.447,10.838-6.447c4.815,0,8.961,2.63,10.817,6.407
							c0.552,1.122-0.233,2.04-1.024,1.359c-2.451-2.106-5.932-3.423-9.793-3.423c-3.74,0-7.125,1.235-9.561,3.228
							C80.547,106.801,79.62,106.059,80.16,104.947z"/>
					</defs>
					<clipPath id="SVGID_76_">
						<use xlink:href="#SVGID_75_"  overflow="visible"/>
					</clipPath>
					<g clip-path="url(#SVGID_76_)">
						<defs>
							<rect id="SVGID_77_" x="64" y="82.5" width="112" height="44"/>
						</defs>
						<clipPath id="SVGID_78_">
							<use xlink:href="#SVGID_77_"  overflow="visible"/>
						</clipPath>
						<rect x="75" y="93.5" opacity="0.6" clip-path="url(#SVGID_78_)" width="32" height="18"/>
					</g>
				</g>
				<g clip-path="url(#SVGID_18_)">
					<defs>
						<path id="SVGID_79_" d="M138.16,104.947c1.847-3.799,6.004-6.447,10.838-6.447c4.815,0,8.961,2.63,10.817,6.407
							c0.552,1.122-0.233,2.04-1.024,1.359c-2.451-2.106-5.932-3.423-9.793-3.423c-3.74,0-7.124,1.235-9.561,3.228
							C138.547,106.801,137.62,106.059,138.16,104.947z"/>
					</defs>
					<clipPath id="SVGID_80_">
						<use xlink:href="#SVGID_79_"  overflow="visible"/>
					</clipPath>
					<g clip-path="url(#SVGID_80_)">
						<defs>
							<rect id="SVGID_81_" x="64" y="82.5" width="112" height="44"/>
						</defs>
						<clipPath id="SVGID_82_">
							<use xlink:href="#SVGID_81_"  overflow="visible"/>
						</clipPath>
						<rect x="133" y="93.5" opacity="0.6" clip-path="url(#SVGID_82_)" width="32" height="18"/>
					</g>
				</g>
				<g clip-path="url(#SVGID_18_)">
					<defs>
						<path id="SVGID_83_" d="M90.547,80.648c-5.807,0.269-15.195,4.488-14.953,10.344c0.008,0.191,0.29,0.275,0.428,0.129
							c2.754-2.96,22.314-5.95,29.205-4.365c0.631,0.145,1.109-0.478,0.71-0.927C102.514,81.981,95.75,80.403,90.547,80.648"/>
					</defs>
					<clipPath id="SVGID_84_">
						<use xlink:href="#SVGID_83_"  overflow="visible"/>
					</clipPath>
					<g clip-path="url(#SVGID_84_)">
						<defs>
							<rect id="SVGID_85_" x="64" y="74.5" width="112" height="24"/>
						</defs>
						<clipPath id="SVGID_86_">
							<use xlink:href="#SVGID_85_"  overflow="visible"/>
						</clipPath>
						
							<rect x="71" y="75.5" transform="matrix(-0.9962 -0.0872 0.0872 -0.9962 174.1145 180.6022)" opacity="0.6" clip-path="url(#SVGID_86_)" width="40" height="22"/>
					</g>
				</g>
				<g clip-path="url(#SVGID_18_)">
					<defs>
						<path id="SVGID_87_" d="M150.453,80.648c5.807,0.269,15.195,4.488,14.953,10.344c-0.008,0.191-0.29,0.275-0.428,0.129
							c-2.754-2.96-22.314-5.95-29.205-4.365c-0.631,0.145-1.109-0.478-0.71-0.927C138.486,81.981,145.25,80.403,150.453,80.648"/>
					</defs>
					<clipPath id="SVGID_88_">
						<use xlink:href="#SVGID_87_"  overflow="visible"/>
					</clipPath>
					<g clip-path="url(#SVGID_88_)">
						<defs>
							<rect id="SVGID_89_" x="64" y="74.5" width="112" height="24"/>
						</defs>
						<clipPath id="SVGID_90_">
							<use xlink:href="#SVGID_89_"  overflow="visible"/>
						</clipPath>
						
							<rect x="130" y="75.5" transform="matrix(0.9962 -0.0872 0.0872 0.9962 -6.9684 13.4029)" opacity="0.6" clip-path="url(#SVGID_90_)" width="40" height="22"/>
					</g>
				</g>
			</g>
		</g>
	</g>
</g>
<g>
	<defs>
		<rect id="SVGID_91_" x="169.547" y="66.03" width="13.445" height="32.427"/>
	</defs>
	<clipPath id="SVGID_92_">
		<use xlink:href="#SVGID_91_"  overflow="visible"/>
	</clipPath>
	<g clip-path="url(#SVGID_92_)" enable-background="new    ">
		<g>
			<defs>
				<rect id="SVGID_93_" x="169" y="65.5" width="15" height="33"/>
			</defs>
			<clipPath id="SVGID_94_">
				<use xlink:href="#SVGID_93_"  overflow="visible"/>
			</clipPath>
			<g clip-path="url(#SVGID_94_)">
				<defs>
					<path id="SVGID_95_" d="M182.907,67.668c-0.022-0.544-0.062-1.091-0.104-1.638c-3.826,2.504-9.026,5.437-13.256,7.534
						c3.439,10.458,4.535,24.926,6.227,24.893c2.01-0.038,3.453-5.237,3.867-6.229C182.713,84.852,183.234,75.595,182.907,67.668"/>
				</defs>
				<clipPath id="SVGID_96_">
					<use xlink:href="#SVGID_95_"  overflow="visible"/>
				</clipPath>
				<g clip-path="url(#SVGID_96_)">
					<defs>
						<rect id="SVGID_97_" x="169" y="65.5" width="14" height="33"/>
					</defs>
					<clipPath id="SVGID_98_">
						<use xlink:href="#SVGID_97_"  overflow="visible"/>
					</clipPath>
					<rect x="164.547" y="61.03" clip-path="url(#SVGID_98_)" fill="#D6B370" width="23.445" height="42.427"/>
				</g>
			</g>
		</g>
	</g>
</g>
<g>
	<defs>
		<rect id="SVGID_99_" x="58" y="66.328" width="11.874" height="34.172"/>
	</defs>
	<clipPath id="SVGID_100_">
		<use xlink:href="#SVGID_99_"  overflow="visible"/>
	</clipPath>
	<g clip-path="url(#SVGID_100_)" enable-background="new    ">
		<g>
			<defs>
				<rect id="SVGID_101_" x="57" y="65.5" width="13" height="38"/>
			</defs>
			<clipPath id="SVGID_102_">
				<use xlink:href="#SVGID_101_"  overflow="visible"/>
			</clipPath>
			<g clip-path="url(#SVGID_102_)">
				<defs>
					<path id="SVGID_103_" d="M61.949,97.247c0.707,1.734,2.898,5.352,4.186,1.638c0.254-0.734-0.334-3.194-0.332-3.935
						c0.002-2.048,0.856-12.767,4.071-22.245c-3.868-1.922-7.616-4.045-11.221-6.377C57.221,76.732,58.065,87.725,61.949,97.247"/>
				</defs>
				<clipPath id="SVGID_104_">
					<use xlink:href="#SVGID_103_"  overflow="visible"/>
				</clipPath>
				<g clip-path="url(#SVGID_104_)">
					<defs>
						<rect id="SVGID_105_" x="58" y="65.5" width="12" height="36"/>
					</defs>
					<clipPath id="SVGID_106_">
						<use xlink:href="#SVGID_105_"  overflow="visible"/>
					</clipPath>
					<rect x="53" y="61.328" clip-path="url(#SVGID_106_)" fill="#D6B370" width="21.874" height="44.172"/>
				</g>
			</g>
		</g>
	</g>
</g>
<g>
	<defs>
		<rect id="SVGID_107_" x="58.133" y="2.5" width="124.717" height="70.623"/>
	</defs>
	<clipPath id="SVGID_108_">
		<use xlink:href="#SVGID_107_"  overflow="visible"/>
	</clipPath>
	<g clip-path="url(#SVGID_108_)" enable-background="new    ">
		<g>
			<defs>
				<rect id="SVGID_109_" x="58" y="1.5" width="125" height="72"/>
			</defs>
			<clipPath id="SVGID_110_">
				<use xlink:href="#SVGID_109_"  overflow="visible"/>
			</clipPath>
			<g clip-path="url(#SVGID_110_)">
				<defs>
					<path id="SVGID_111_" d="M120.491,38.256c21.582,0,40.317,15.182,49.797,34.864c4.347-2.118,8.547-4.489,12.562-7.122
						C179.76,33.53,153.021,2.5,120.491,2.5c-32.528,0-59.269,31.03-62.358,63.498c4.017,2.633,8.219,5.006,12.567,7.125
						C80.18,53.44,98.909,38.256,120.491,38.256"/>
				</defs>
				<clipPath id="SVGID_112_">
					<use xlink:href="#SVGID_111_"  overflow="visible"/>
				</clipPath>
				<g clip-path="url(#SVGID_112_)">
					<defs>
						<rect id="SVGID_113_" x="58" y="2.5" width="125" height="71"/>
					</defs>
					<clipPath id="SVGID_114_">
						<use xlink:href="#SVGID_113_"  overflow="visible"/>
					</clipPath>
					<rect x="53.133" y="-2.5" clip-path="url(#SVGID_114_)" fill="#0F506D" width="134.717" height="80.623"/>
				</g>
			</g>
		</g>
	</g>
</g>
<g>
	<defs>
		<path id="SVGID_115_" d="M121.165,38.256c-0.09,0-0.403,0.005-0.403,0.005c-0.091,0-0.181-0.005-0.271-0.005
			c-21.992,0-40.492,14.64-49.791,34.867c3.274,4.811,9.498,12.344,12.674,12.344c3.174,0,4.813-7.114,10.776-13.231
			c7.904-8.112,14.945-9.942,26.341-9.942c0.09,0,0.18,0.004,0.271,0.004c0,0,0.305-0.004,0.396-0.004
			c11.396,0,18.562,1.83,26.466,9.942c5.963,6.117,7.586,13.231,10.761,13.231s9.366-7.533,12.64-12.344
			C161.725,52.896,143.158,38.256,121.165,38.256"/>
	</defs>
	<clipPath id="SVGID_116_">
		<use xlink:href="#SVGID_115_"  overflow="visible"/>
	</clipPath>
	<rect x="65.7" y="33.256" clip-path="url(#SVGID_116_)" fill="#113640" width="110.323" height="57.211"/>
</g>
</svg>
